# xmcd
#
# Track frame offsets:
#	150
#	11100
#	30069
#	51099
#	63552
#	82923
#	93611
#	119048
#	131454
#	146482
#	186338
#	193505
#	206432
#	221350
#	265301
#
# Disc length: 4336
#
# Revision: 1
# Processed by: cddbd v1.5.1PL0 Copyright (c) Steve Scherf et al.
# Submitted via: CDex 1.50
# Normalized: r0:TRMNUM
#
DISCID=d510ee0f
DTITLE=Stevie Ray Vaughan and Double Trouble - In Step
DYEAR=1900
DGENRE=Blues
TTITLE0=The House is Rockin'
TTITLE1=Crossfire
TTITLE2=Tightrope
TTITLE3=Le Me Love You Baby
TTITLE4=Leave My Girl Alone
TTITLE5=Travis Walk
TTITLE6=Wall of Denial
TTITLE7=Scratch n Sniff
TTITLE8=Love Me Darlin
TTITLE9=Riviera Paradise
TTITLE10=SRV Speaks
TTITLE11=The House is Rockin' (live)
TTITLE12=Let Me Love You Baby (live)
TTITLE13=Texas Flood (live)
TTITLE14=Life Without You (live)
EXTD=
EXTT0=
EXTT1=
EXTT2=
EXTT3=
EXTT4=
EXTT5=
EXTT6=
EXTT7=
EXTT8=
EXTT9=
EXTT10=
EXTT11=
EXTT12=
EXTT13=
EXTT14=
PLAYORDER=
